# Blender v2.61 (sub 0) OBJ File: '02-left_leg2.blend'
# www.blender.org
mtllib 02-left_leg2.mtl
o Man.006_Body.006
v -0.413201 0.360096 -0.143452
v -0.163745 0.271255 -0.157897
v 0.095957 0.261854 0.176898
v -0.133103 0.259475 0.395837
v -0.413201 0.261854 0.520222
v 0.069357 -1.796880 0.159631
v 0.329395 -1.806505 -0.075227
v -0.222648 -0.354500 0.412064
v -0.413201 -0.611209 0.102299
v -0.121627 -0.635438 -0.278783
v -0.413201 -0.548398 -0.269428
v 0.236069 -0.276756 0.176898
v -0.413201 -0.177848 0.479398
v 0.093180 -0.140001 -0.170437
v -0.215293 -0.287349 -0.434381
v 0.006711 -0.382683 0.422878
v -0.413201 -0.033444 -0.272730
v 0.130269 -0.491761 -0.132416
v 0.203680 -2.212666 0.012206
v 0.176092 -1.742964 -0.261820
v 0.147258 -1.548262 -0.246050
v 0.221170 -1.796880 0.159631
v -0.002615 -1.809369 -0.145111
v 0.281038 -0.674888 0.050835
vt 0.431792 0.745300
vt 0.368173 0.762810
vt 0.361032 0.717405
vt 0.233181 0.974457
vt 0.177357 0.972907
vt 0.233102 0.904838
vt 0.140102 0.151096
vt 0.096571 0.162161
vt 0.110623 0.109748
vt 0.933704 0.142175
vt 0.886494 0.080519
vt 0.933678 0.042000
vt 0.369139 0.362081
vt 0.397006 0.389218
vt 0.356846 0.407995
vt 0.312423 0.363926
vt 0.355430 0.327345
vt 0.427753 0.716379
vt 0.514995 0.755433
vt 0.453754 0.785245
vt 0.035945 0.172243
vt 0.053474 0.126558
vt 0.067898 0.320349
vt 0.065384 0.285055
vt 0.094944 0.278865
vt 0.914940 0.635436
vt 0.873108 0.628719
vt 0.875842 0.613446
vt 0.463814 0.641166
vt 0.418802 0.608975
vt 0.466456 0.626142
vt 0.945596 0.490466
vt 0.987044 0.490499
vt 0.950327 0.544585
vt 0.031072 0.298386
vt 0.485047 0.720473
vt 0.898264 0.027919
vt 0.172222 0.093806
vt 0.177852 0.127865
vt 0.874722 0.697447
vt 0.797777 0.527095
vt 0.718873 0.466149
vt 0.843092 0.466335
vt 0.589943 0.789573
vt 0.637868 0.833981
vt 0.590077 0.938495
vt 0.945275 0.762984
vt 0.027198 0.208028
vt 0.383205 0.690532
vt 0.870718 0.498185
vn 0.772454 0.218451 -0.596271
vn 0.925077 0.341746 0.165471
vn 0.963164 0.122929 0.239051
vn 0.353832 0.417890 -0.836726
vn -0.185125 -0.278756 0.942320
vn 0.377789 -0.027070 0.925474
vn 0.485458 0.056337 0.872433
vn -0.776879 -0.556352 0.294717
vn -0.376385 -0.667104 -0.642842
vn -0.014008 -0.324076 -0.945921
vn -0.232917 0.331187 -0.914335
vn 0.056032 0.311594 -0.948546
vn 0.029328 0.019868 -0.999359
vn 0.753533 0.060732 -0.654561
vn -0.088595 -0.548235 0.831599
vn 0.537217 -0.197546 0.819941
vn -0.575396 -0.334513 0.746300
vn -0.941710 -0.277779 -0.189673
vn 0.236122 0.009522 -0.971648
vn 0.206275 0.109287 -0.972350
vn 0.996673 -0.021302 0.078463
vn 0.403790 -0.084567 0.910916
vn 0.177099 -0.212317 0.960997
vn 0.997070 0.075411 -0.011811
usemtl Skin_untitled.001
s 1
f 14/1/1 3/2/2 12/3/3
f 14/4/1 2/5/4 3/6/2
f 8/7/5 16/8/6 4/9/7
f 9/10/8 11/11/9 10/12/10
f 17/13/11 1/14/12 2/15/4
f 15/16/13 11/17/9 17/13/11
f 12/3/3 18/18/14 14/1/1
f 15/19/13 14/1/1 18/18/14
f 15/16/13 17/13/11 2/15/4
f 2/20/4 14/1/1 15/19/13
f 4/9/7 16/8/6 12/21/3
f 12/21/3 3/22/2 4/9/7
f 19/23/15 22/24/16 6/25/17
f 23/26/18 21/27/19 20/28/20
f 21/29/19 7/30/21 20/31/20
f 19/32/15 6/33/17 23/34/18
f 7/35/21 22/24/16 19/23/15
f 15/19/13 18/18/14 10/36/10
f 15/37/13 10/12/10 11/11/9
f 4/9/7 5/38/22 13/39/23
f 13/39/23 8/7/5 4/9/7
f 18/18/14 21/29/19 10/36/10
f 23/26/18 10/40/10 21/27/19
f 22/24/16 16/8/6 6/25/17
f 16/8/6 8/7/5 6/25/17
f 9/41/8 23/42/18 8/43/5
f 23/44/18 6/45/17 8/46/5
f 10/40/10 23/26/18 9/47/8
f 7/35/21 24/48/24 22/24/16
f 12/3/3 24/49/24 18/18/14
f 22/24/16 24/48/24 16/8/6
f 24/48/24 12/21/3 16/8/6
f 18/18/14 24/49/24 21/29/19
f 24/49/24 7/30/21 21/29/19
f 8/43/5 13/50/23 9/41/8
