# Blender v2.61 (sub 0) OBJ File: '02-left_foot2.blend'
# www.blender.org
mtllib 02-left_foot2.mtl
o Man.007_Body.007
v 0.164797 0.106719 0.054779
v 0.357643 -1.608687 -0.266248
v 0.194254 -1.612709 -0.364393
v 0.126860 -1.608650 -0.265343
v 0.275934 -1.635400 -0.095521
v 0.039082 -0.299441 0.142212
v 0.329084 -0.604951 -0.154790
v 0.108127 -0.505125 -0.392231
v -0.149445 -0.594857 -0.174576
v 0.011495 0.170260 -0.131814
v 0.412774 -2.012843 -0.313390
v 0.288741 -2.012843 -0.523024
v 0.123004 -2.012843 -0.229083
v 0.268315 -2.012843 0.574439
v 0.590854 -2.012843 0.429630
v 0.089961 -2.012843 -0.484281
v -0.167213 0.103855 -0.015105
vt 0.514995 0.789573
vt 0.582281 0.819851
vt 0.515011 0.931444
vt 0.838244 0.778493
vt 0.869028 0.802359
vt 0.838287 0.827525
vt 0.943745 0.933476
vt 0.881060 0.939899
vt 0.872413 0.780601
vt 0.944102 0.762984
vt 0.898656 0.987617
vt 0.940939 0.987132
vt 0.718873 0.982915
vt 0.718913 0.939848
vt 0.757175 0.976791
vt 0.908119 0.469167
vt 0.945596 0.466149
vt 0.925210 0.485482
vt 0.545835 0.974331
vt 0.032392 0.437458
vt 0.000138 0.478660
vt 0.006248 0.444771
vt 0.045958 0.583549
vt 0.013186 0.610671
vt 0.000000 0.581650
vt 0.134964 0.478660
vt 0.514824 0.494776
vt 0.478830 0.485375
vt 0.487207 0.454877
vt 0.808777 0.939848
vt 0.808726 0.989358
vt 0.773595 0.953024
vt 0.135022 0.643515
vt 0.119098 0.693914
vt 0.061987 0.670191
vt 0.931741 0.574829
vt 0.914940 0.635436
vt 0.875842 0.613446
vt 0.872413 0.537113
vt 0.509022 0.581424
vt 0.466456 0.626142
vt 0.445543 0.557181
vt 0.418802 0.608975
vt 0.000000 0.365221
vt 0.031072 0.298386
vt 0.067898 0.320349
vn -0.343516 -0.190374 0.919614
vn 0.810602 -0.221320 0.542100
vn 0.130192 0.348186 0.928312
vn 0.380779 -0.434370 -0.816279
vn -0.711447 -0.442274 -0.546068
vn -0.227119 0.143376 -0.963225
vn -0.769738 -0.621418 0.146001
vn 0.788079 -0.536424 -0.301859
vn -0.993530 -0.113437 0.004242
vn 0.951506 0.110660 -0.286996
vn -0.050722 -0.166967 0.984649
vn -0.852229 0.095706 -0.514267
vn -0.985137 -0.130192 -0.111881
vn 0.095737 0.353618 -0.930448
vn 0.074587 0.186224 -0.979644
vn 0.993652 0.112186 -0.003967
vn 0.939085 0.276772 -0.203681
usemtl Skin_untitled.001
s 1
f 14/1/1 15/2/2 5/3/3
f 12/4/4 16/5/5 3/6/6
f 13/7/7 11/8/8 15/9/2
f 13/7/7 15/9/2 14/10/1
f 11/8/8 13/7/7 12/11/4
f 13/7/7 16/12/5 12/11/4
f 3/13/6 16/14/5 13/15/7
f 3/16/6 13/17/7 4/18/9
f 5/3/3 15/2/2 11/19/8
f 5/20/3 11/21/8 2/22/10
f 5/23/3 4/24/9 13/25/7
f 5/23/3 13/25/7 14/26/1
f 3/27/6 2/28/10 11/29/8
f 3/30/6 11/31/8 12/32/4
f 6/33/11 17/34/12 9/35/13
f 5/23/3 6/33/11 9/35/13
f 5/23/3 9/35/13 4/24/9
f 9/36/13 17/37/12 10/38/14
f 9/36/13 10/38/14 8/39/15
f 4/18/9 9/36/13 8/39/15
f 4/18/9 8/39/15 3/16/6
f 8/40/15 10/41/14 7/42/16
f 10/41/14 1/43/17 7/42/16
f 3/27/6 8/40/15 7/42/16
f 3/27/6 7/42/16 2/28/10
f 7/44/16 1/45/17 6/46/11
f 2/22/10 7/44/16 5/20/3
f 7/44/16 6/46/11 5/20/3
