# Blender v2.61 (sub 0) OBJ File: '02-left_arm.blend'
# www.blender.org
mtllib 02-left_arm.mtl
o Man.003_Body.003
v 1.330428 6.804884 0.541473
v 1.490837 6.490831 0.523296
v 1.634302 6.412721 0.469830
v 1.560629 6.760069 0.089497
v 1.549791 6.720653 0.471156
v 1.580153 6.436265 0.004301
v 1.829349 6.332160 0.216048
v 1.679926 6.817928 0.314924
v 1.461737 6.865499 0.359770
v 1.927503 5.775456 0.327699
v 2.034429 5.889321 0.145457
v 1.852360 5.629351 -0.049936
v 1.730799 5.789647 0.244633
v 1.802098 6.608568 0.264848
v 1.386459 6.290913 0.386876
vt 0.606975 0.736093
vt 0.573851 0.762874
vt 0.582829 0.717104
vt 0.621009 0.689834
vt 0.869289 0.722617
vt 0.849708 0.701865
vt 0.869019 0.690103
vt 0.852038 0.653394
vt 0.827039 0.784272
vt 0.780353 0.764266
vt 0.797580 0.723141
vt 0.064741 0.921160
vt 0.016795 0.873700
vt 0.082810 0.854396
vt 0.026674 0.836302
vt 0.337874 0.811828
vt 0.399021 0.785245
vt 0.357862 0.841403
vt 0.314875 0.852591
vt 0.527323 0.738697
vt 0.564844 0.789573
vt 0.869286 0.778493
vt 0.849247 0.766154
vt 0.838244 0.736200
vt 0.040189 0.934374
vt 0.000072 0.888155
vt 0.838244 0.814193
vt 0.809954 0.836074
vt 0.718873 0.739072
vt 0.729859 0.795876
vn 0.480575 0.366192 0.796808
vn 0.636555 0.755272 0.155980
vn 0.338847 0.863613 0.373211
vn 0.426405 0.460738 0.778344
vn 0.412152 -0.124241 0.902585
vn 0.264077 -0.141423 0.954070
vn -0.703757 -0.551042 0.448347
vn 0.339885 -0.032716 0.939879
vn 0.251137 0.110630 -0.961577
vn 0.957244 0.270821 -0.101535
vn -0.249702 -0.069124 -0.965819
vn 0.851436 0.439833 -0.285562
vn 0.573382 0.566088 -0.592242
vn 0.958495 0.284890 0.008911
vn -0.600146 -0.570605 0.560503
usemtl Skin_untitled.001
s 1
f 5/1/1 8/2/2 9/3/3
f 9/3/3 1/4/4 5/1/1
f 3/5/5 5/6/1 2/7/6
f 5/6/1 1/8/4 2/7/6
f 3/9/5 13/10/7 10/11/8
f 6/12/9 7/13/10 12/14/11
f 7/13/10 11/15/12 12/14/11
f 7/16/10 3/17/5 10/18/8
f 7/16/10 10/18/8 11/19/12
f 9/3/3 8/2/2 4/20/13
f 8/2/2 14/21/14 4/20/13
f 7/22/10 14/23/14 3/5/5
f 5/6/1 3/5/5 14/23/14
f 14/23/14 8/24/2 5/6/1
f 6/12/9 4/25/13 14/26/14
f 14/26/14 7/13/10 6/12/9
f 2/27/6 15/28/15 3/9/5
f 15/28/15 13/10/7 3/9/5
f 13/10/7 15/28/15 12/29/11
f 15/28/15 6/30/9 12/29/11
