# Blender v2.61 (sub 0) OBJ File: '02-left_arm3.blend'
# www.blender.org
mtllib 02-left_arm3.mtl
o Man.003_Body.003
v 0.097867 -0.183696 0.253695
v 0.156209 -0.189137 -0.094524
v 0.175427 -0.088064 -0.232209
v -0.195667 0.166488 0.028990
v 0.137379 -0.018192 0.077042
v -0.262069 0.072846 -0.286146
v 0.041141 0.135994 -0.433962
v 0.059378 0.193259 0.080297
v -0.002152 0.022902 0.218404
v 0.185598 -0.080998 -0.947835
v 0.073787 0.130259 -0.925945
v -0.183781 -0.048939 -1.127091
v 0.020735 -0.196099 -0.874583
v 0.071719 0.217474 -0.165724
v -0.013067 -0.304440 -0.260426
vt 0.606975 0.736093
vt 0.573851 0.762874
vt 0.582829 0.717104
vt 0.621009 0.689834
vt 0.869289 0.722617
vt 0.849708 0.701865
vt 0.869019 0.690103
vt 0.852038 0.653394
vt 0.827039 0.784272
vt 0.780353 0.764266
vt 0.797580 0.723141
vt 0.064741 0.921160
vt 0.016795 0.873700
vt 0.082810 0.854396
vt 0.026674 0.836302
vt 0.337874 0.811828
vt 0.399021 0.785245
vt 0.357862 0.841403
vt 0.314875 0.852591
vt 0.527323 0.738697
vt 0.564844 0.789573
vt 0.869286 0.778493
vt 0.849247 0.766154
vt 0.838244 0.736200
vt 0.040189 0.934374
vt 0.000072 0.888155
vt 0.838244 0.814193
vt 0.809954 0.836074
vt 0.718873 0.739072
vt 0.729859 0.795876
vn 0.928831 0.213477 0.302744
vn 0.433576 0.776879 0.456557
vn 0.487838 0.499008 0.716208
vn 0.887356 0.220374 0.404950
vn 0.990783 -0.103549 -0.087161
vn 0.967650 -0.249977 -0.033357
vn 0.070559 -0.989990 -0.122105
vn 0.990265 -0.135472 0.031007
vn -0.735221 0.647786 -0.199408
vn 0.354228 0.921842 -0.157018
vn -0.971404 0.172277 -0.163182
vn 0.142125 0.989837 -0.002106
vn -0.258522 0.953093 0.157292
vn 0.452681 0.883236 -0.122074
vn 0.217994 -0.963164 -0.157323
usemtl Skin_untitled.001
s 1
f 5/1/1 8/2/2 9/3/3
f 9/3/3 1/4/4 5/1/1
f 3/5/5 5/6/1 2/7/6
f 5/6/1 1/8/4 2/7/6
f 3/9/5 13/10/7 10/11/8
f 6/12/9 7/13/10 12/14/11
f 7/13/10 11/15/12 12/14/11
f 7/16/10 3/17/5 10/18/8
f 7/16/10 10/18/8 11/19/12
f 9/3/3 8/2/2 4/20/13
f 8/2/2 14/21/14 4/20/13
f 7/22/10 14/23/14 3/5/5
f 5/6/1 3/5/5 14/23/14
f 14/23/14 8/24/2 5/6/1
f 6/12/9 4/25/13 14/26/14
f 14/26/14 7/13/10 6/12/9
f 2/27/6 15/28/15 3/9/5
f 15/28/15 13/10/7 3/9/5
f 13/10/7 15/28/15 12/29/11
f 15/28/15 6/30/9 12/29/11
