# Blender v2.61 (sub 0) OBJ File: '02-right_arm3.blend'
# www.blender.org
mtllib 02-right_arm3.mtl
o Man.002_Body.002
v 0.185004 -0.231026 0.163269
v 0.144312 -0.278870 -0.184215
v 0.040853 -0.242903 -0.316671
v 0.018214 0.201612 -0.047180
v 0.013852 -0.179859 -0.004803
v 0.117676 0.217268 -0.367104
v -0.095309 -0.011555 -0.508705
v -0.129948 -0.006749 0.007871
v 0.054600 -0.040667 0.136992
v 0.320865 -0.187234 -0.357144
v -0.003749 -0.237064 -1.030990
v -0.129622 -0.035052 -1.000047
v 0.181590 -0.152868 -0.965002
v 0.144661 0.101706 -1.212128
v -0.168544 -0.001523 -0.236563
vt 0.582657 0.491503
vt 0.573610 0.446406
vt 0.606776 0.473821
vt 0.620879 0.518917
vt 0.254119 0.931195
vt 0.236219 0.928110
vt 0.254076 0.904838
vt 0.239290 0.968215
vt 0.330923 0.568165
vt 0.358035 0.603341
vt 0.319696 0.639998
vt 0.739440 0.173662
vt 0.811192 0.181043
vt 0.783362 0.243356
vt 0.785508 0.136702
vt 0.980994 0.050092
vt 0.981155 0.117148
vt 0.939510 0.070794
vt 0.943574 0.027919
vt 0.527120 0.471911
vt 0.564564 0.422225
vt 0.933703 0.094186
vt 0.968867 0.138253
vt 0.935285 0.117696
vt 0.832644 0.191441
vt 0.812050 0.251226
vt 0.309404 0.754332
vt 0.240744 0.790641
vt 0.177357 0.770724
vt 0.135022 0.478660
vt 0.175913 0.541243
vt 0.135052 0.619642
vt 0.997518 0.908887
vt 0.977492 0.933784
vt 0.977519 0.879237
vt 0.361000 0.676869
vn -0.641926 -0.184515 0.744224
vn -0.867275 0.005249 0.497726
vn -0.634510 -0.702689 0.321818
vn -0.614978 -0.664907 0.423841
vn -0.268654 -0.962554 -0.035829
vn -0.409375 -0.908628 -0.082278
vn -0.375988 -0.925962 0.034211
vn 0.815424 -0.553606 -0.168981
vn 0.328562 0.930052 -0.164251
vn -0.981719 0.155919 -0.108890
vn -0.202399 0.963469 -0.175176
vn -0.927335 0.371197 0.046999
vn -0.687979 0.697439 0.200476
vn -0.995880 0.050783 -0.074862
vn 0.716941 -0.667379 -0.201422
usemtl Skin_untitled.001
s 1
f 9/1/1 8/2/2 5/3/3
f 5/3/3 1/4/4 9/1/1
f 2/5/5 5/6/3 3/7/6
f 2/5/5 1/8/4 5/6/3
f 11/9/7 13/10/8 3/11/6
f 14/12/9 7/13/10 6/14/11
f 14/12/9 12/15/12 7/13/10
f 11/16/7 3/17/6 7/18/10
f 12/19/12 11/16/7 7/18/10
f 4/20/13 8/2/2 9/1/1
f 15/21/14 8/2/2 4/20/13
f 15/22/14 7/18/10 3/17/6
f 5/23/3 8/24/2 15/22/14
f 15/22/14 3/17/6 5/23/3
f 6/14/11 7/13/10 15/25/14
f 15/25/14 4/26/13 6/14/11
f 10/27/15 13/28/8 14/29/9
f 14/30/9 6/31/11 10/32/15
f 2/33/5 3/34/6 10/35/15
f 3/11/6 13/10/8 10/36/15
