# Blender v2.61 (sub 0) OBJ File: '02-right_hand.blend'
# www.blender.org
mtllib 02-right_hand.mtl
o Man.009_Body.009
v -2.014327 3.928104 1.325208
v -2.075735 4.213590 1.207332
v -2.139072 4.217519 0.937547
v -2.154240 3.954705 1.250790
v -2.264759 3.962358 0.962704
v -2.067554 3.878778 1.335831
v -2.124682 3.600281 1.256038
v -2.257775 3.686324 0.985272
v -2.246398 3.966452 1.304227
v -2.348703 3.991698 1.020966
v -1.665069 4.920585 0.984474
v -1.713290 5.012722 0.628931
v -2.036425 5.064030 0.862017
v -1.904400 4.923435 1.087039
v -2.093234 4.306888 1.173714
v -2.122574 4.337258 0.969668
v -2.276583 4.364042 1.060470
v -2.198525 4.315978 1.214157
v -1.591729 5.173019 0.923501
v -1.895359 5.272694 0.824325
v -1.788433 5.158828 1.006567
vt 0.154388 0.972204
vt 0.124517 0.981124
vt 0.129190 0.918564
vt 0.154499 0.936738
vt 0.031967 0.998804
vt 0.005520 0.994492
vt 0.013279 0.937151
vt 0.031889 0.934374
vt 0.989582 0.027919
vt 0.990423 0.080367
vt 0.981155 0.072994
vt 0.982506 0.035717
vt 0.101286 0.980796
vt 0.101339 0.918547
vt 0.409605 0.983493
vt 0.399225 0.989346
vt 0.428167 0.955130
vt 0.399197 0.949886
vt 0.972668 0.829289
vt 0.972301 0.767745
vt 0.993764 0.824619
vt 0.999651 0.762984
vt 0.710113 0.518416
vt 0.717336 0.527157
vt 0.710166 0.551513
vt 0.332153 0.957653
vt 0.334232 0.987967
vt 0.314875 0.987921
vt 0.741986 0.049738
vt 0.734488 0.017688
vt 0.771003 0.022035
vt 0.746598 0.000000
vt 0.752206 0.054156
vt 0.977492 0.947884
vt 0.996367 0.933784
vt 0.981697 0.955453
vt 0.996332 0.981655
vt 0.718905 0.007366
vt 0.994428 0.413610
vt 0.979766 0.390531
vt 0.994402 0.374409
vt 0.979766 0.357443
vt 0.994086 0.336478
vt 0.994146 0.374409
vt 0.254119 0.967861
vt 0.273129 0.905471
vt 0.309404 0.970335
vt 0.309303 0.904838
vt 0.739440 0.173662
vt 0.783049 0.102708
vt 0.785508 0.136702
vt 0.326759 0.535460
vt 0.321107 0.454877
vt 0.336393 0.472763
vt 0.361032 0.577358
vt 0.240744 0.790641
vt 0.240810 0.810658
vt 0.177357 0.770724
vt 0.214071 0.904838
vt 0.177443 0.882196
vt 0.330923 0.568165
vt 0.358035 0.603341
vt 0.259139 0.997145
vt 0.303914 0.999149
vn -0.933164 0.318674 -0.166082
vn -0.956053 0.001343 -0.293069
vn -0.562670 -0.089785 0.821772
vn -0.360881 0.349681 0.864559
vn 0.184606 -0.107791 -0.976867
vn 0.402387 -0.068636 -0.912870
vn 0.933470 0.130406 0.334025
vn 0.755730 -0.503616 -0.418592
vn 0.310129 -0.207221 -0.927824
vn 0.833918 0.036073 0.550645
vn -0.104587 -0.784722 -0.610920
vn 0.344523 -0.872799 0.345653
vn 0.263283 -0.866054 0.424940
vn 0.910672 -0.297189 0.286874
vn -0.905667 0.397076 -0.148473
vn -0.142094 0.298318 0.943815
vn 0.256691 -0.375103 -0.890713
vn -0.832118 0.538957 -0.130619
vn 0.848201 -0.299783 0.436628
vn 0.881314 -0.147618 0.448805
vn -0.090945 0.357494 0.929441
usemtl Skin_untitled.001
s 1
f 17/1/1 10/2/2 9/3/3
f 9/3/3 18/4/4 17/1/1
f 5/5/5 3/6/6 2/7/7
f 2/7/7 4/8/8 5/5/5
f 2/9/7 3/10/6 16/11/9
f 16/11/9 15/12/10 2/9/7
f 8/13/11 7/14/12 9/3/3
f 8/13/11 9/3/3 10/2/2
f 6/15/13 1/16/14 9/17/3
f 1/16/14 18/18/4 9/17/3
f 5/19/5 4/20/8 8/21/11
f 4/20/8 7/22/12 8/21/11
f 1/23/14 6/24/13 4/25/8
f 1/26/14 4/27/8 2/28/7
f 3/29/6 5/30/5 17/31/1
f 5/30/5 10/32/2 17/31/1
f 16/33/9 3/29/6 17/31/1
f 15/34/10 18/35/4 2/36/7
f 1/37/14 2/36/7 18/35/4
f 5/30/5 8/38/11 10/32/2
f 7/39/12 4/40/8 9/41/3
f 4/42/8 6/43/13 9/44/3
f 13/45/15 17/46/1 14/47/16
f 17/46/1 18/48/4 14/47/16
f 12/49/17 13/50/15 20/51/18
f 12/49/17 16/33/9 13/50/15
f 16/33/9 17/31/1 13/50/15
f 14/52/16 18/53/4 15/54/10
f 14/52/16 15/54/10 11/55/19
f 19/56/20 11/57/19 12/58/17
f 11/57/19 15/59/10 16/60/9
f 11/57/19 16/60/9 12/58/17
f 21/61/21 14/52/16 11/55/19
f 21/61/21 11/55/19 19/62/20
f 20/63/18 13/45/15 21/64/21
f 13/45/15 14/47/16 21/64/21
