# Blender v2.61 (sub 0) OBJ File: '02-right_arm2.blend'
# www.blender.org
mtllib 02-right_arm2.mtl
o Man.002_Body.002
v 0.230639 0.037485 0.244248
v 0.070230 -0.276567 0.226071
v -0.073235 -0.354678 0.172604
v 0.000438 -0.007329 -0.207729
v 0.011276 -0.046746 0.173930
v -0.019086 -0.331133 -0.292924
v -0.268283 -0.435239 -0.081178
v -0.118860 0.050529 0.017698
v 0.099330 0.098100 0.062544
v 0.174607 -0.476485 0.089650
v -0.366436 -0.991942 0.030473
v -0.473362 -0.878077 -0.151769
v -0.169732 -0.977751 -0.052592
v -0.291293 -1.138048 -0.347162
v -0.241031 -0.158830 -0.032377
vt 0.582657 0.491503
vt 0.573610 0.446406
vt 0.606776 0.473821
vt 0.620879 0.518917
vt 0.254119 0.931195
vt 0.236219 0.928110
vt 0.254076 0.904838
vt 0.239290 0.968215
vt 0.330923 0.568165
vt 0.358035 0.603341
vt 0.319696 0.639998
vt 0.739440 0.173662
vt 0.811192 0.181043
vt 0.783362 0.243356
vt 0.785508 0.136702
vt 0.980994 0.050092
vt 0.981155 0.117148
vt 0.939510 0.070794
vt 0.943574 0.027919
vt 0.527120 0.471911
vt 0.564564 0.422225
vt 0.933703 0.094186
vt 0.968867 0.138253
vt 0.935285 0.117696
vt 0.832644 0.191441
vt 0.812050 0.251226
vt 0.309404 0.754332
vt 0.240744 0.790641
vt 0.177357 0.770724
vt 0.135022 0.478660
vt 0.175913 0.541243
vt 0.135052 0.619642
vt 0.997518 0.908887
vt 0.977492 0.933784
vt 0.977519 0.879237
vt 0.361000 0.676869
vn -0.338847 0.863613 0.373211
vn -0.636555 0.755272 0.155980
vn -0.480575 0.366192 0.796808
vn -0.426405 0.460738 0.778344
vn -0.264077 -0.141423 0.954070
vn -0.412152 -0.124241 0.902585
vn -0.339885 -0.032716 0.939879
vn 0.703757 -0.551042 0.448347
vn 0.249702 -0.069124 -0.965819
vn -0.957244 0.270821 -0.101535
vn -0.251137 0.110630 -0.961577
vn -0.851436 0.439833 -0.285592
vn -0.573382 0.566088 -0.592242
vn -0.958495 0.284890 0.008911
vn 0.600146 -0.570605 0.560503
usemtl Skin_untitled.001
s 1
f 9/1/1 8/2/2 5/3/3
f 5/3/3 1/4/4 9/1/1
f 2/5/5 5/6/3 3/7/6
f 2/5/5 1/8/4 5/6/3
f 11/9/7 13/10/8 3/11/6
f 14/12/9 7/13/10 6/14/11
f 14/12/9 12/15/12 7/13/10
f 11/16/7 3/17/6 7/18/10
f 12/19/12 11/16/7 7/18/10
f 4/20/13 8/2/2 9/1/1
f 15/21/14 8/2/2 4/20/13
f 15/22/14 7/18/10 3/17/6
f 5/23/3 8/24/2 15/22/14
f 15/22/14 3/17/6 5/23/3
f 6/14/11 7/13/10 15/25/14
f 15/25/14 4/26/13 6/14/11
f 10/27/15 13/28/8 14/29/9
f 14/30/9 6/31/11 10/32/15
f 2/33/5 3/34/6 10/35/15
f 3/11/6 13/10/8 10/36/15
