# Blender v2.61 (sub 0) OBJ File: '02-right_leg3.blend'
# www.blender.org
mtllib 02-right_leg3.mtl
o Man.005_Body.005
v 0.128512 -0.079782 0.351562
v -0.100071 -0.059993 0.218567
v -0.349628 -0.393605 0.140816
v -0.121704 -0.612004 0.168412
v 0.154394 -0.736308 0.215848
v 0.061375 -0.251990 -1.871747
v -0.194913 -0.016976 -1.915973
v 0.081277 -0.591107 -0.417770
v 0.312967 -0.266401 -0.615380
v 0.026779 0.115452 -0.671157
v 0.297013 0.100852 -0.531734
v -0.386515 -0.361063 -0.413541
v 0.236175 -0.668994 -0.212854
v -0.275665 -0.022627 -0.232065
v 0.051918 0.249734 -0.303072
v -0.138625 -0.600197 -0.489023
v 0.200658 0.073036 -0.026629
v -0.245874 -0.039326 -0.586170
v 0.005534 -0.079712 -2.295843
v -0.058321 0.165435 -1.813872
v -0.066236 0.137931 -1.618500
v -0.087749 -0.251988 -1.900195
v 0.130961 0.052950 -1.852421
v -0.357646 -0.211177 -0.804852
vt 0.514995 0.283032
vt 0.509674 0.333330
vt 0.452409 0.304930
vt 0.428474 0.358320
vt 0.219699 0.086909
vt 0.260094 0.127921
vt 0.214308 0.135558
vt 0.837002 0.116025
vt 0.886494 0.080519
vt 0.933704 0.142175
vt 0.397006 0.389218
vt 0.369139 0.362081
vt 0.601255 0.953328
vt 0.637866 0.938495
vt 0.637868 0.994961
vt 0.453088 0.277669
vt 0.369250 0.324516
vt 0.054724 0.934374
vt 0.082810 0.985228
vt 0.031967 0.985176
vt 0.648899 0.285848
vt 0.711455 0.280509
vt 0.712005 0.330327
vt 0.655196 0.327899
vt 0.282863 0.239518
vt 0.312423 0.233328
vt 0.308125 0.270049
vt 0.899385 0.320541
vt 0.902281 0.336398
vt 0.861013 0.339052
vt 0.408225 0.188091
vt 0.453108 0.169377
vt 0.411514 0.204172
vt 0.782051 0.625547
vt 0.846733 0.616076
vt 0.828697 0.653394
vt 0.623065 0.136383
vt 0.650555 0.169164
vt 0.597322 0.166331
vt 0.393665 0.292398
vt 0.832644 0.078164
vt 0.177852 0.127865
vt 0.172222 0.093806
vt 0.915271 0.409406
vt 0.872413 0.540312
vt 0.797777 0.527095
vt 0.832687 0.466149
vt 0.622169 0.254241
vt 0.493882 0.251122
vt 0.870718 0.498185
vn -0.966399 -0.246040 -0.074099
vn -0.970733 -0.185827 0.151921
vn -0.806391 0.581988 0.104831
vn -0.435194 0.809961 0.393078
vn -0.477523 -0.874233 -0.087466
vn -0.355541 -0.922147 -0.152257
vn 0.244636 -0.923765 -0.294534
vn 0.063692 0.963775 -0.258980
vn 0.487228 0.681967 -0.545396
vn 0.870540 -0.260567 -0.417432
vn -0.124058 0.927976 0.351299
vn 0.156499 0.892666 0.422651
vn -0.043825 0.996338 0.073305
vn -0.758934 0.649709 -0.042787
vn 0.636219 -0.724754 -0.264473
vn -0.481460 -0.806513 -0.343028
vn 0.198981 -0.796960 -0.570299
vn -0.234046 0.963988 0.126225
vn -0.244728 0.969298 0.022767
vn 0.974853 0.206122 -0.084628
vn -0.974151 -0.077029 -0.212317
vn -0.123386 -0.946410 -0.298379
vn -0.370525 -0.904141 -0.212622
vn -0.993652 0.007263 -0.112156
usemtl Skin_untitled.001
s 1
f 12/1/1 3/2/2 14/3/3
f 3/2/2 2/4/4 14/3/3
f 4/5/5 16/6/6 8/7/7
f 10/8/8 11/9/9 9/10/10
f 2/4/4 1/11/11 17/12/12
f 17/13/12 11/14/9 15/15/13
f 14/3/3 18/16/14 12/1/1
f 18/16/14 14/3/3 15/17/13
f 2/18/4 17/19/12 15/20/13
f 15/17/13 14/3/3 2/4/4
f 12/21/1 16/22/6 4/23/5
f 4/23/5 3/24/2 12/21/1
f 6/25/15 22/26/16 19/27/17
f 20/28/18 21/29/19 23/30/20
f 20/31/18 7/32/21 21/33/19
f 23/34/20 6/35/15 19/36/17
f 19/37/17 22/38/16 7/39/21
f 10/40/8 18/16/14 15/17/13
f 11/9/9 10/8/8 15/41/13
f 13/42/22 5/43/23 4/5/5
f 4/5/5 8/7/7 13/42/22
f 10/40/8 21/33/19 18/16/14
f 21/29/19 10/44/8 23/30/20
f 6/25/15 16/6/6 22/26/16
f 6/25/15 8/7/7 16/6/6
f 8/45/7 23/34/20 9/46/10
f 8/45/7 6/35/15 23/34/20
f 9/47/10 23/30/20 10/44/8
f 24/48/24 7/39/21 22/38/16
f 24/49/24 12/1/1 18/16/14
f 7/32/21 24/49/24 21/33/19
f 24/49/24 18/16/14 21/33/19
f 12/21/1 24/48/24 16/22/6
f 24/48/24 22/38/16 16/22/6
f 8/45/7 9/46/10 13/50/22
