# Blender v2.61 (sub 0) OBJ File: '02-torso2.blend'
# www.blender.org
mtllib 02-torso2.mtl
o Man_Body
v 0.000000 -0.810268 -0.151219
v 0.249455 -0.899110 -0.165664
v -0.249455 -0.899110 -0.165664
v 0.509158 -0.908511 0.169131
v -0.509158 -0.908511 0.169131
v 0.280097 -0.910890 0.388071
v -0.280098 -0.910890 0.388071
v -0.000000 -0.908511 0.512456
v 0.000000 0.424550 -0.512456
v 0.326618 0.703256 -0.439734
v -0.326617 0.703256 -0.439734
v 0.410405 0.649123 0.067610
v -0.410405 0.649123 0.067610
v -0.000000 0.537664 0.242658
v 0.384406 0.054631 0.413526
v -0.384406 0.054631 0.413526
v -0.000000 0.068806 0.459125
v 0.000000 -0.267111 -0.206675
v 0.292727 -0.265674 -0.204154
v -0.292727 -0.265674 -0.204154
v 0.488148 -0.470283 0.130207
v -0.488148 -0.470283 0.130207
v 0.352147 -0.110670 0.453476
v -0.352147 -0.110670 0.453476
v -0.000000 -0.080605 0.476486
v 0.408959 0.164750 0.440363
v -0.408960 0.164750 0.440363
v -0.000000 0.127878 0.479627
v 0.000000 0.910890 -0.347585
v 0.208532 0.844241 -0.103815
v -0.208532 0.844241 -0.103815
v 0.000000 0.746488 0.067765
v 0.570814 0.335070 0.049433
v -0.570814 0.335070 0.049433
v 0.640606 0.604309 -0.384366
v -0.640606 0.604309 -0.384366
v 0.660130 0.280505 -0.469562
v -0.660130 0.280505 -0.469562
v 0.541714 0.709737 -0.114093
v -0.541714 0.709737 -0.114093
v 0.570377 0.060543 -0.086987
v -0.466436 0.135152 -0.086988
v 0.466436 0.135152 -0.086987
v -0.570377 0.060543 -0.086988
vt 0.319642 0.454877
vt 0.319696 0.543321
vt 0.312842 0.540171
vt 0.708573 0.404048
vt 0.712288 0.412547
vt 0.624174 0.422225
vt 0.582829 0.717104
vt 0.584021 0.646950
vt 0.621009 0.689834
vt 0.620879 0.518917
vt 0.583955 0.560105
vt 0.582657 0.491503
vt 0.619338 0.725039
vt 0.701765 0.691716
vt 0.701635 0.521402
vt 0.619157 0.487319
vt 0.765290 0.421361
vt 0.749469 0.466149
vt 0.718873 0.464829
vt 0.783362 0.243356
vt 0.812050 0.251226
vt 0.797197 0.311781
vt 0.177357 0.616524
vt 0.185982 0.478660
vt 0.241980 0.555203
vt 0.242355 0.677446
vt 0.186828 0.754332
vt 0.241642 0.616327
vt 0.755794 0.362567
vt 0.515099 0.672838
vt 0.527323 0.738697
vt 0.527120 0.471911
vt 0.514995 0.536816
vt 0.532837 0.603515
vt 0.074284 0.041455
vt 0.085840 0.051012
vt 0.047407 0.094539
vt 0.647304 0.361380
vt 0.718873 0.391791
vt 0.658097 0.604744
vt 0.620329 0.603824
vt 0.710113 0.606709
vt 0.069042 0.033346
vt 0.151582 0.018038
vt 0.228300 0.000000
vt 0.223981 0.010111
vt 0.151480 0.023138
vt 0.222974 0.022298
vt 0.155177 0.033620
vt 0.110623 0.109748
vt 0.219699 0.086909
vt 0.172222 0.093806
vt 0.053474 0.126558
vt 0.655196 0.327899
vt 0.712005 0.330327
vt 0.361032 0.765342
vt 0.312920 0.766515
vt 0.360915 0.676869
vt 0.509674 0.333330
vt 0.447007 0.396585
vt 0.428474 0.358320
vt 0.327437 0.686278
vt 0.513559 0.364820
vt 0.397006 0.389218
vt 0.404609 0.425623
vt 0.362954 0.454877
vt 0.356846 0.407995
vt 0.804203 0.366531
vt 0.009380 0.066084
vt 0.012116 0.040962
vt 0.266058 0.497155
vt 0.311797 0.514185
vt 0.597546 0.400268
vt 0.266789 0.735346
vt 0.312423 0.718036
vt 0.514995 0.414181
vt 0.945596 0.653955
vt 0.972737 0.676898
vt 0.945734 0.762984
vt 0.154499 0.693914
vt 0.176338 0.716291
vt 0.162193 0.767529
vt 0.970535 0.544585
vt 0.970528 0.653955
vt 0.945596 0.567537
vn 0.885830 0.240394 0.396802
vn 0.581927 0.079928 0.809290
vn 0.650899 -0.110599 0.751061
vn -0.650899 -0.110599 0.751061
vn -0.581927 0.079928 0.809290
vn -0.885830 0.240394 0.396802
vn 0.365642 0.930509 0.020905
vn 0.363933 0.902554 0.229957
vn 0.323679 0.681906 0.655904
vn -0.323679 0.681906 0.655904
vn -0.363933 0.902554 0.229957
vn -0.365642 0.930509 0.020905
vn 0.242042 0.610950 -0.753746
vn 0.318522 0.600330 -0.733543
vn 0.324046 -0.154424 -0.933317
vn -0.324046 -0.154424 -0.933317
vn -0.318522 0.600330 -0.733543
vn -0.242042 0.610950 -0.753746
vn 0.000000 -0.052400 -0.998596
vn 0.397778 -0.335246 -0.853999
vn -0.397778 -0.335246 -0.853999
vn 0.000000 -0.255867 -0.966704
vn 0.000000 0.744224 -0.667898
vn 0.519547 0.005646 0.854396
vn 0.996277 -0.029664 -0.080752
vn -0.996277 -0.029664 -0.080752
vn -0.519547 0.005646 0.854396
vn 0.000000 0.613575 0.789605
vn 0.000000 0.642048 0.766625
vn 0.000000 0.075961 0.997101
vn 0.000000 -0.102145 0.994751
vn 0.000000 0.033357 0.999420
vn 0.513993 -0.056429 0.855892
vn -0.513993 -0.056429 0.855892
vn 0.000000 0.043397 0.999054
vn 0.994110 -0.082492 0.070009
vn -0.994110 -0.082492 0.070009
vn 0.451430 -0.084811 -0.888241
vn -0.451430 -0.084811 -0.888241
vn 0.000000 -0.067293 -0.997711
vn 0.954192 -0.296579 0.039064
vn -0.954192 -0.296579 0.039064
vn 0.807245 0.556169 -0.197394
vn -0.807245 0.556169 -0.197394
usemtl Skin_untitled.001
s 1
f 33/1/1 26/2/2 15/3/3
f 16/4/4 27/5/5 34/6/6
f 39/7/7 30/8/8 12/9/9
f 13/10/10 31/11/11 40/12/12
f 33/13/1 12/9/9 26/14/2
f 27/15/5 13/10/10 34/16/6
f 10/17/13 35/18/14 37/19/15
f 38/20/16 36/21/17 11/22/18
f 9/23/19 37/24/15 19/25/20
f 20/26/21 38/27/16 9/23/19
f 19/25/20 18/28/22 9/23/19
f 9/23/19 18/28/22 20/26/21
f 10/17/13 37/19/15 9/29/19
f 9/29/19 38/20/16 11/22/18
f 10/30/13 39/7/7 35/31/14
f 36/32/17 40/12/12 11/33/18
f 10/30/13 29/34/23 30/8/8
f 31/11/11 29/34/23 11/33/18
f 10/30/13 30/8/8 39/7/7
f 40/12/12 31/11/11 11/33/18
f 15/35/3 23/36/24 21/37/25
f 22/38/26 24/39/27 16/4/4
f 12/9/9 30/8/8 14/40/28
f 14/40/28 31/11/11 13/10/10
f 30/8/8 32/41/29 14/40/28
f 14/40/28 32/41/29 31/11/11
f 26/14/2 12/9/9 14/40/28
f 14/40/28 13/10/10 27/15/5
f 26/14/2 14/40/28 28/42/30
f 28/42/30 14/40/28 27/15/5
f 15/35/3 26/43/2 28/44/30
f 28/44/30 27/45/5 16/46/4
f 15/35/3 28/44/30 17/47/31
f 17/47/31 28/44/30 16/46/4
f 23/36/24 15/35/3 17/47/31
f 17/47/31 16/46/4 24/48/27
f 23/36/24 17/47/31 25/49/32
f 25/49/32 17/47/31 24/48/27
f 6/50/33 23/36/24 25/49/32
f 25/49/32 24/48/27 7/51/34
f 6/50/33 25/49/32 8/52/35
f 8/52/35 25/49/32 7/51/34
f 4/53/36 21/37/25 23/36/24
f 24/39/27 22/38/26 5/54/37
f 4/53/36 23/36/24 6/50/33
f 7/55/34 24/39/27 5/54/37
f 2/56/38 19/57/20 4/58/36
f 5/59/37 20/60/21 3/61/39
f 19/57/20 21/62/25 4/58/36
f 5/59/37 22/63/26 20/60/21
f 1/64/40 18/65/22 19/66/20
f 18/65/22 1/64/40 20/60/21
f 2/67/38 1/64/40 19/66/20
f 20/60/21 1/64/40 3/61/39
f 9/29/19 29/68/23 10/17/13
f 11/22/18 29/68/23 9/29/19
f 15/35/3 21/37/25 41/69/41
f 41/69/41 33/70/1 15/35/3
f 37/24/15 41/71/41 19/25/20
f 41/71/41 21/72/25 19/25/20
f 44/73/42 22/38/26 16/4/4
f 16/4/4 34/6/6 44/73/42
f 38/27/16 20/26/21 44/74/42
f 20/26/21 22/75/26 44/74/42
f 34/6/6 38/76/16 44/73/42
f 34/77/6 42/78/43 38/79/16
f 33/80/1 41/81/41 37/82/15
f 33/83/1 37/84/15 43/85/44
